<svg id="레이어_1" data-name="레이어 1" xmlns="http://www.w3.org/2000/svg" viewBox="0 0 53.19 104.71"><defs><style>.cls-1{fill:#171818;}.cls-1,.cls-2,.cls-3{isolation:isolate;}.cls-2{fill:#373737;}.cls-3{fill:#1c1d1d;}.cls-4{fill:#fff;}.cls-5{fill:#353636;}</style></defs><path class="cls-1" d="M323.85,404.74h-.28V392.27h.28a.38.38,0,0,1,.38.38v11.71A.38.38,0,0,1,323.85,404.74Z" transform="translate(-271.04 -368.59)"/><path class="cls-1" d="M271.43,397.33h.28v-7.74h-.28a.38.38,0,0,0-.39.38v7A.39.39,0,0,0,271.43,397.33Z" transform="translate(-271.04 -368.59)"/><path class="cls-1" d="M271.43,385.72h.28v-4.5h-.28a.39.39,0,0,0-.39.39v3.73A.38.38,0,0,0,271.43,385.72Z" transform="translate(-271.04 -368.59)"/><path class="cls-1" d="M271.43,406.39h.28v-7.74h-.28a.38.38,0,0,0-.39.38v7A.39.39,0,0,0,271.43,406.39Z" transform="translate(-271.04 -368.59)"/><rect class="cls-2" x="0.54" width="52.12" height="104.71" rx="7.72"/><rect class="cls-3" x="2.28" y="1.7" width="48.63" height="101.3" rx="5.9"/><rect class="cls-4" x="247.7" y="397.3" width="99.88" height="47.29" rx="5.31" transform="translate(447.54 -245.29) rotate(90)"/><path class="cls-3" d="M283.54,371a20.27,20.27,0,0,1,2.1,2.81,2.44,2.44,0,0,0,2.05,1.15h19.89a2.44,2.44,0,0,0,2.06-1.15,19.81,19.81,0,0,1,2.09-2.81Z" transform="translate(-271.04 -368.59)"/><circle class="cls-5" cx="26.6" cy="52.35" r="15.42"/><polygon class="cls-4" points="29.48 52.44 35.46 56.22 35.46 48.51 29.48 52.44"/><polygon class="cls-4" points="17.73 48.51 17.73 56.22 23.71 52.44 17.73 48.51"/><path class="cls-4" d="M305.39,414.85H289.88a1.09,1.09,0,0,0-1.07.95l8.83,5.81,8.83-5.81A1.11,1.11,0,0,0,305.39,414.85Z" transform="translate(-271.04 -368.59)"/><path class="cls-4" d="M299.51,421.7l-1.57,1a.55.55,0,0,1-.3.09.59.59,0,0,1-.31-.09l-1.56-1-7,4.4a1.1,1.1,0,0,0,1.07.94h15.51a1.09,1.09,0,0,0,1.07-.94Z" transform="translate(-271.04 -368.59)"/></svg>