<svg id="레이어_1" data-name="레이어 1" xmlns="http://www.w3.org/2000/svg" viewBox="0 0 150 14.79"><defs><style>.cls-1{fill:#fff;}</style></defs><path class="cls-1" d="M306.14,422.24v.24a8,8,0,0,0,.07,1.14,1.39,1.39,0,0,0,.24.61c.22.3.74.47,1.57.49h.63v2.68H300v-2.68h.38a3.71,3.71,0,0,0,1-.12,1.25,1.25,0,0,0,.63-.35,1.43,1.43,0,0,0,.37-.67,3.09,3.09,0,0,0,.12-.91v-3.08a15.12,15.12,0,0,0-.05-1.69,1.64,1.64,0,0,0-.93-1.49,2.81,2.81,0,0,0-1.1-.17H300v-2.67h9.71a4,4,0,0,1,3.16,1.13,4.78,4.78,0,0,1,1.08,3.29,4.32,4.32,0,0,1-1.21,3.27,3.18,3.18,0,0,1-1.38.79,5.91,5.91,0,0,1-1.64.19Zm0-2.65h2.15a1.61,1.61,0,0,0,1.25-.44,1.74,1.74,0,0,0,.44-1.24,1.69,1.69,0,0,0-.52-1.33,1.72,1.72,0,0,0-1.17-.34h-2.15Z" transform="translate(-223 -413.11)"/><path class="cls-1" d="M327.86,422v5.36H314.48v-2.68h.39a4,4,0,0,0,1-.12,1.42,1.42,0,0,0,.6-.36,2,2,0,0,0,.45-1.2c0-.16,0-.61,0-1.33v-2.43c0-.78,0-1.29,0-1.52a1.51,1.51,0,0,0-.95-1.34,3.19,3.19,0,0,0-1.1-.16h-.39v-2.67h8.66v2.67h-.38a4,4,0,0,0-1,.12,1.33,1.33,0,0,0-.6.37,1.91,1.91,0,0,0-.46,1.19c0,.17,0,.62,0,1.34v5.45h2.89a3.5,3.5,0,0,0,1.13-.13c.61-.24,1-1.09,1-2.55Z" transform="translate(-223 -413.11)"/><path class="cls-1" d="M338,413.57l4,8.54a12.59,12.59,0,0,0,.76,1.47,2.67,2.67,0,0,0,1.19,1,2.55,2.55,0,0,0,.72.15v2.68h-8.28v-2.68a4,4,0,0,0,1.43-.17.68.68,0,0,0,.44-.66A2.63,2.63,0,0,0,338,423h-5a1.66,1.66,0,0,0-.28.81.81.81,0,0,0,.64.84,6.58,6.58,0,0,0,1.24.12v2.68h-6.64v-2.68a3.07,3.07,0,0,0,1.61-.47,5.75,5.75,0,0,0,1.28-2l4-8.68Zm-1.06,7.13-1.51-3.16L334,420.7Z" transform="translate(-223 -413.11)"/><path class="cls-1" d="M356.24,422.12h1.81a9.35,9.35,0,0,1-.7,2.25,6.71,6.71,0,0,1-1.18,1.71,6.33,6.33,0,0,1-4.8,1.81,6.8,6.8,0,0,1-4.88-1.81,7.37,7.37,0,0,1-2.16-5.6,8.43,8.43,0,0,1,1.09-4.34,5.89,5.89,0,0,1,2.81-2.46,6.75,6.75,0,0,1,2.7-.57,7.89,7.89,0,0,1,3.45.85,3,3,0,0,0,1,.35c.36,0,.58-.24.64-.74h2V419h-2a4.88,4.88,0,0,0-.46-1.33,3.67,3.67,0,0,0-1.49-1.53,4,4,0,0,0-1.86-.47,3.43,3.43,0,0,0-2.65,1.28,5,5,0,0,0-1.17,3.36,5.47,5.47,0,0,0,1.13,3.48,3.57,3.57,0,0,0,2.94,1.51,3.38,3.38,0,0,0,2.69-1.27A5.89,5.89,0,0,0,356.24,422.12Z" transform="translate(-223 -413.11)"/><path class="cls-1" d="M373,421.92v5.48H358.86v-2.68h.42a4.08,4.08,0,0,0,1-.12,1.42,1.42,0,0,0,.6-.36,2,2,0,0,0,.45-1.2c0-.16,0-.61,0-1.33v-2.43c0-.78,0-1.29,0-1.52a1.49,1.49,0,0,0-.94-1.34,3.19,3.19,0,0,0-1.1-.16h-.42v-2.67H373v5.33h-2a4,4,0,0,0-.52-2.09,1.36,1.36,0,0,0-.91-.53,5,5,0,0,0-.85,0h-3.61v2.93h.5a6.25,6.25,0,0,0,1-.05,1.08,1.08,0,0,0,.74-.49,2.52,2.52,0,0,0,.24-1.2h2.06v6.05h-2.06a1.91,1.91,0,0,0-.52-1.42,2.31,2.31,0,0,0-1.38-.29h-.57v3h3.54a3.14,3.14,0,0,0,1.35-.21c.62-.4.95-1.26,1-2.59Z" transform="translate(-223 -413.11)"/><path class="cls-1" d="M250.48,413.51h5.44v2.29a5.14,5.14,0,0,0-1.6.4,6.39,6.39,0,0,0-1.79,1.32l-1.11,1.13,3.6,3.6a2.66,2.66,0,0,0,1.35.86v2.29h-6.85v-2.29c.68,0,1-.14,1-.41a1.47,1.47,0,0,0-.54-.91l-.84-.84-1,1c-.15.14-.24.24-.28.28a.66.66,0,0,0-.14.38.45.45,0,0,0,.41.46,2.69,2.69,0,0,0,.58.05v2.29h-6.17v-2.29a10.14,10.14,0,0,0,1.15-.17,4,4,0,0,0,1.27-.62,10.44,10.44,0,0,0,1.45-1.24l1.4-1.43-2.14-2.15c-.55-.56-.91-.9-1.06-1a2.75,2.75,0,0,0-1.15-.59,5.32,5.32,0,0,0-.64-.09v-2.29h7v2.29c-.46,0-.69.12-.69.34a.53.53,0,0,0,.16.32l.22.23.63.67.64-.63c.28-.26.41-.46.41-.61s-.21-.32-.62-.32h-.1Z" transform="translate(-223 -413.11)"/><path class="cls-1" d="M266.83,420.86h1.57a8.08,8.08,0,0,1-.61,1.94,5.55,5.55,0,0,1-1,1.47,5.43,5.43,0,0,1-4.13,1.56,5.83,5.83,0,0,1-4.19-1.56,6.33,6.33,0,0,1-1.87-4.82,7.3,7.3,0,0,1,.94-3.73,5.13,5.13,0,0,1,2.42-2.12,5.77,5.77,0,0,1,2.33-.49,6.76,6.76,0,0,1,3,.73,2.65,2.65,0,0,0,.9.3c.31,0,.5-.21.55-.63h1.72v4.66h-1.72a3.86,3.86,0,0,0-.4-1.14,3.08,3.08,0,0,0-1.28-1.32,3.36,3.36,0,0,0-1.59-.41,2.9,2.9,0,0,0-2.28,1.11,4.25,4.25,0,0,0-1,2.89,4.76,4.76,0,0,0,1,3,3.09,3.09,0,0,0,2.54,1.3,2.94,2.94,0,0,0,2.32-1.09A5,5,0,0,0,266.83,420.86Z" transform="translate(-223 -413.11)"/><path class="cls-1" d="M281.26,420.69v4.71H269.09v-2.3h.36a4,4,0,0,0,.87-.11,1.21,1.21,0,0,0,.51-.31,1.65,1.65,0,0,0,.39-1c0-.14,0-.52,0-1.15v-2.09c0-.67,0-1.11,0-1.31a1.27,1.27,0,0,0-.81-1.15,2.75,2.75,0,0,0-.95-.14h-.36v-2.29h12.17v4.58h-1.74a3.36,3.36,0,0,0-.45-1.79,1.16,1.16,0,0,0-.78-.47,5.3,5.3,0,0,0-.73,0h-3.11v2.53h.43a5.73,5.73,0,0,0,.85-.05.9.9,0,0,0,.64-.42,2.18,2.18,0,0,0,.21-1h1.77V422h-1.77a1.63,1.63,0,0,0-.45-1.22,2,2,0,0,0-1.19-.25h-.49v2.54h3.05a2.74,2.74,0,0,0,1.16-.18,2.62,2.62,0,0,0,.86-2.23Z" transform="translate(-223 -413.11)"/><path class="cls-1" d="M293.65,420.79v4.61H282.14v-2.3h.33a4,4,0,0,0,.87-.11,1.31,1.31,0,0,0,.52-.31,1.71,1.71,0,0,0,.38-1c0-.14,0-.52,0-1.15v-2.09c0-.67,0-1.11,0-1.31a1.29,1.29,0,0,0-.81-1.15,2.8,2.8,0,0,0-.95-.14h-.33v-2.29h7.45v2.29h-.33a3.47,3.47,0,0,0-.86.11,1.09,1.09,0,0,0-.52.32,1.6,1.6,0,0,0-.39,1c0,.14,0,.53,0,1.15v4.69H290a3,3,0,0,0,1-.11c.53-.21.83-.94.9-2.2Z" transform="translate(-223 -413.11)"/><path class="cls-1" d="M232,427.89h9.43v-5.7h-2.1c-.05,1.39-.39,2.29-1,2.7a3.19,3.19,0,0,1-1.4.22H232Z" transform="translate(-223 -413.11)"/><path class="cls-1" d="M232,416.28h5a5.55,5.55,0,0,1,.89,0,1.46,1.46,0,0,1,.94.56,4.18,4.18,0,0,1,.54,2.17h2.1v-5.54H232Z" transform="translate(-223 -413.11)"/><path class="cls-1" d="M231.3,413.51H223v2.77h.44a3.36,3.36,0,0,1,1.14.17,1.54,1.54,0,0,1,1,1.39c0,.25,0,.78,0,1.59V422c0,.76,0,1.22,0,1.39a2,2,0,0,1-.47,1.24,1.44,1.44,0,0,1-.63.38,4.21,4.21,0,0,1-1,.13H223v2.78h8.3V413.51" transform="translate(-223 -413.11)"/><polygon class="cls-1" points="12.33 4.23 13.35 6.29 15.62 6.62 13.97 8.22 14.36 10.49 12.33 9.42 10.3 10.49 10.69 8.22 9.04 6.62 11.31 6.29 12.33 4.23"/><rect class="cls-1" x="19.65" y="13.58" width="51" height="1.2"/></svg>